ply
format ascii 1.0
comment AutoResearchClaw test fixture: regular tetrahedron, edge length 1
comment Used by Tests/test_slicer_cached_model.py to verify SlicerMorph can
comment load a model from the local cache without network access.
element vertex 4
property float x
property float y
property float z
element face 4
property list uchar uint vertex_indices
end_header
0.000000 0.000000 0.000000
1.000000 0.000000 0.000000
0.500000 0.866025 0.000000
0.500000 0.288675 0.816497
3 0 1 2
3 0 1 3
3 1 2 3
3 0 2 3
